<svg xmlns="http://www.w3.org/2000/svg" width="28" height="28" viewBox="0 0 28 28" fill="none" color="#111">
  <mask id="mask0_8924_24636" style="mask-type:luminance" maskUnits="userSpaceOnUse" x="30" y="6" width="48" height="16">
    <path d="M77.3948 6.70508H30.6831V21.5867H77.3948V6.70508Z" fill="currentColor"/>
  </mask>
  <g mask="url(#mask0_8924_24636)">
    <path d="M35.4441 21.2513V8.63531H30.7471V6.7041H42.4023V8.63531H37.7053V21.2416H35.4441V21.2513Z" fill="currentColor"/>
    <path d="M50.7869 16.4942H42.8097C42.8486 18.2216 43.8676 19.8326 45.9249 19.8326C47.759 19.8326 48.4675 18.6486 48.6519 17.9596H50.6899C50.1366 19.949 48.6131 21.4532 45.886 21.4532C42.5865 21.4532 40.7621 19.1144 40.7621 15.941C40.7621 12.7676 42.7127 10.4482 45.886 10.4482C49.0594 10.4482 50.8063 12.5251 50.8063 15.7372C50.8063 16.0187 50.8063 16.3292 50.7869 16.4942ZM48.7295 14.922C48.7295 13.2917 47.5941 12.0786 45.8182 12.0786C44.149 12.0786 42.9262 13.214 42.8097 14.922H48.7295Z" fill="currentColor"/>
    <path d="M52.7954 17.688H54.8042C54.8818 18.8913 55.6194 19.823 57.5506 19.823C59.2975 19.823 59.7632 19.0466 59.7632 18.2993C59.7632 16.999 58.3756 16.8534 57.0363 16.572C55.2216 16.1449 53.1544 15.6112 53.1544 13.4568C53.1544 11.6712 54.6004 10.4678 57.1042 10.4678C59.9477 10.4678 61.316 11.9914 61.4616 13.7867H59.443C59.2975 12.9909 58.8705 12.0787 57.1431 12.0787C55.8039 12.0787 55.2313 12.6028 55.2313 13.3792C55.2313 14.4564 56.386 14.5632 57.8515 14.8834C59.7632 15.3298 61.8401 15.8829 61.8401 18.2023C61.8401 20.2112 60.297 21.434 57.5701 21.434C54.4161 21.434 52.8537 19.8036 52.7856 17.688H52.7954Z" fill="currentColor"/>
    <path d="M63.7134 17.688H65.7222C65.7998 18.8913 66.5374 19.823 68.4686 19.823C70.2155 19.823 70.6812 19.0466 70.6812 18.2993C70.6812 16.999 69.2935 16.8534 67.9543 16.572C66.1395 16.1449 64.0724 15.6112 64.0724 13.4568C64.0724 11.6712 65.5184 10.4678 68.0222 10.4678C70.8657 10.4678 72.2339 11.9914 72.3795 13.7867H70.361C70.2155 12.9909 69.7885 12.0787 68.0611 12.0787C66.7218 12.0787 66.1492 12.6028 66.1492 13.3792C66.1492 14.4564 67.304 14.5632 68.7695 14.8834C70.6812 15.3298 72.758 15.8829 72.758 18.2023C72.758 20.2112 71.215 21.434 68.4881 21.434C65.3341 21.434 63.7716 19.8036 63.7036 17.688H63.7134Z" fill="currentColor"/>
    <path d="M75.3307 21.2513V6.7041H77.3201V21.2513H75.3307Z" fill="currentColor"/>
  </g>
  <path d="M6.87137 12.2181C6.87168 11.9667 7.1427 11.8117 7.35901 11.9355L11.7957 14.5036V20.2812C11.7957 21.292 12.8941 21.9163 13.7598 21.4012L18.0221 18.8605V25.1769L13.7473 27.6516C12.9434 28.1161 11.9546 28.1161 11.1507 27.6516L6.87137 25.1769V12.2181ZM24.9025 19.7013C24.9024 20.6306 24.4075 21.4902 23.6037 21.9549L19.3256 24.4295V18.0857L24.9025 14.7588V19.7013ZM5.57365 17.9774H5.57023V24.4262L1.29885 21.9549C0.495145 21.4902 0.00016839 20.6305 0 19.7013V14.7554L5.57365 17.9774ZM23.6003 6.04969C24.404 6.51447 24.8992 7.37397 24.8992 8.3033V13.2446L13.5855 19.9918C13.3693 20.1227 13.0958 19.964 13.0956 19.7126V14.5115L18.5142 11.3739C19.1632 10.998 19.1664 10.0648 18.5211 9.68532L13.6846 6.83697L19.3221 3.5739L23.6003 6.04969ZM16.9021 10.2436C17.1183 10.3676 17.1184 10.6814 16.9021 10.8053L12.453 13.3802L7.03884 10.247C6.38961 9.8714 5.5777 10.3401 5.57365 11.0913V16.4746L0 13.2526V8.3033C0 7.37399 0.495181 6.51448 1.29885 6.04969L5.57707 3.57048L16.9021 10.2436ZM13.6846 6.83697L13.6823 6.83925V6.83583L13.6846 6.83697ZM11.1507 0.348424C11.9546 -0.116155 12.9434 -0.116127 13.7473 0.348424L18.0221 2.81966L12.3949 6.07589L6.87137 2.82307L11.1507 0.348424Z" fill="currentColor"/>
</svg>
