<svg xmlns="http://www.w3.org/2000/svg" viewBox="0 0 150 150"><path fill="currentColor" d="M103.8 29.2c4.2-6.3 7.6-13.7 10-24.6-7.4 4.9-16.9 9.4-29.3 12.7H76c-15.4 0-27.3 1.8-39.1 6.7 8.1.1 21 .3 29.8 4.1-17.4.8-35.4 3-50.4 9 8.6.2 22.7.8 32.5 2.4-14.8 3-27.3 5.1-43.6 14.2L29 55.4C19.8 62.8 8.6 73.4 1.6 87c11 .4 22.9 2 35.9 9 14.7 7.4 32.4 22.9 39.2 49.5l20.9-31c-11.5-8.4-26.5-20.6-30.4-38.9-1.4-7.3-.5-12.7 1.5-18.9 0 22 16.4 21.1 25.9 21.8 9.6.5 21.3.6 33.9 14.1 8.1-1.2 16.1-3.5 20.1-19.2zm-8.5 14.5c4.5-.2 7.4-1.1 14 5.9-6.2 2.9-11.5 1.2-14-5.9"/></svg>